<?xml version="1.0" encoding="UTF-8"?>
<svg version="1.1" xmlns="http://www.w3.org/2000/svg" width="1280" height="720">
<path d="M0 0 C2.77141717 -0.08089542 5.54047819 -0.14044062 8.3125 -0.1875 C9.09818359 -0.21263672 9.88386719 -0.23777344 10.69335938 -0.26367188 C11.45068359 -0.27333984 12.20800781 -0.28300781 12.98828125 -0.29296875 C14.03302612 -0.31653442 14.03302612 -0.31653442 15.09887695 -0.34057617 C17 0 17 0 18.3972168 1.49291992 C20.72694652 3.68354012 22.50550988 3.3841888 25.65625 3.40625 C26.76097656 3.42816406 27.86570312 3.45007813 29.00390625 3.47265625 C30.15761719 3.48167969 31.31132813 3.49070313 32.5 3.5 C34.78139425 3.51784331 37.06273471 3.54850232 39.34375 3.59375 C40.35630859 3.60083984 41.36886719 3.60792969 42.41210938 3.61523438 C45.41194628 4.06124786 46.06551867 4.7718164 48 7 C49.99172182 7.69100553 51.99161804 8.35902703 54 9 C54.66 9.66 55.32 10.32 56 11 C56.99 11.33 57.98 11.66 59 12 C62 13 62 13 64 15 C64.886875 15.226875 65.77375 15.45375 66.6875 15.6875 C71.19926616 17.47518093 74.02338767 20.20225323 77 24 C78.3125 27.3125 78.3125 27.3125 79 30 C79.66 30.66 80.32 31.32 81 32 C81.66666667 34 82.33333333 36 83 38 C83.66 38.66 84.32 39.32 85 40 C85.34070409 42.27279815 85.44141829 44.51422264 85.55859375 46.80859375 C85.80654778 49.08404811 85.80654778 49.08404811 87.50390625 50.50390625 C89.91224568 52.91224568 89.46325877 55.58146927 89.59375 58.84375 C90.09175964 61.48703191 91.05644004 62.21429263 93 64 C93.71408334 65.98356483 94.38617742 67.98315437 95 70 C97.09368951 72.09368951 101.71221394 71.15421648 104.60302734 71.15771484 C105.50543655 71.16279556 106.40784576 71.16787628 107.33760071 71.17311096 C109.30414218 71.18383943 111.27069605 71.19244982 113.2372551 71.19923019 C116.34668199 71.21097809 119.45596738 71.23041986 122.56533813 71.25234985 C131.40841996 71.31410643 140.25148834 71.36805235 149.09472656 71.40136719 C154.49707828 71.42227159 159.89917423 71.45754228 165.30138016 71.50212479 C167.3642743 71.5163208 169.42721371 71.5250153 171.49015427 71.52817917 C174.37310428 71.53306855 177.25537149 71.55617564 180.13818359 71.58349609 C180.9954454 71.58048996 181.85270721 71.57748383 182.73594666 71.5743866 C188.63409256 71.65771372 188.63409256 71.65771372 190.60399818 73.50045204 C191.06467878 73.99530287 191.52535938 74.49015369 192 75 C194.26559244 75.45447239 194.26559244 75.45447239 196.78125 75.40625 C197.70550781 75.42816406 198.62976563 75.45007813 199.58203125 75.47265625 C200.54496094 75.48167969 201.50789062 75.49070312 202.5 75.5 C204.40642243 75.51786473 206.31277952 75.54855963 208.21875 75.59375 C209.06373047 75.60083984 209.90871094 75.60792969 210.77929688 75.61523438 C213.47895977 76.08298599 214.18694032 77.02569414 216 79 C218.96243726 79.57947281 218.96243726 79.57947281 222.1875 79.6875 C223.27417969 79.75324219 224.36085938 79.81898438 225.48046875 79.88671875 C226.31191406 79.92410156 227.14335938 79.96148437 228 80 C228 78.68 228 77.36 228 76 C235.92 76 243.84 76 252 76 C252 74.68 252 73.36 252 72 C261.24 72 270.48 72 280 72 C280 70.68 280 69.36 280 68 C284.10403363 67.91305958 288.20783129 67.85962851 292.3125 67.8125 C293.47974609 67.78736328 294.64699219 67.76222656 295.84960938 67.73632812 C296.96787109 67.72666016 298.08613281 67.71699219 299.23828125 67.70703125 C300.26993408 67.6913208 301.30158691 67.67561035 302.36450195 67.65942383 C305.48659708 68.06288123 305.86976977 68.85026791 308 71 C310.65769039 71.45692118 310.65769039 71.45692118 313.65625 71.40625 C315.31333984 71.43912109 315.31333984 71.43912109 317.00390625 71.47265625 C318.73447266 71.48619141 318.73447266 71.48619141 320.5 71.5 C322.78139425 71.51784331 325.06273471 71.54850232 327.34375 71.59375 C328.35630859 71.60083984 329.36886719 71.60792969 330.41210938 71.61523438 C333.40945748 72.06087783 334.04397361 72.80375984 336 75 C339.09492192 75.46930078 339.09492192 75.46930078 342.5 75.5 C348.60791902 75.66507889 348.60791902 75.66507889 350.71484375 77.46484375 C351.13894531 77.97144531 351.56304688 78.47804688 352 79 C353.99172182 79.69100553 355.99161804 80.35902703 358 81 C358.66 81.66 359.32 82.32 360 83 C361.97392259 83.1982085 361.97392259 83.1982085 364.1875 83.1875 C369.23646995 83.6082475 371.12460841 85.65653052 374.3671875 89.3515625 C376.61031528 91.61615561 378.95894351 92.22205532 382 93 C382.66 93.66 383.32 94.32 384 95 C384.969375 95.309375 385.93875 95.61875 386.9375 95.9375 C389.96613892 96.98825228 391.17457422 97.4444039 393 100 C393.37898437 101.38445312 393.37898437 101.38445312 393.765625 102.796875 C395.22410617 106.58154131 397.01253965 108.29044294 400 111 C403.91388301 114.54980087 405.4712654 116.97701487 407 122 C408.37514541 123.7087646 408.37514541 123.7087646 410 125 C412.95337286 127.72398468 413.9338706 130.09085887 415 134 C415.66 134.66 416.32 135.32 417 136 C417.66666667 138 418.33333333 140 419 142 C419.66 142.66 420.32 143.32 421 144 C421.34070409 146.27279815 421.44141829 148.51422264 421.55859375 150.80859375 C421.79253682 153.08157946 421.79253682 153.08157946 423.50390625 154.37890625 C426.33006071 157.4411885 425.48617155 161.98834737 425.59375 165.96875 C425.66093542 168.99441833 425.66093542 168.99441833 427.50410461 170.31819153 C429.70251405 172.789824 429.36077716 174.67435982 429.34057617 177.94018555 C429.34023628 179.77174446 429.34023628 179.77174446 429.33988953 181.64030457 C429.32440567 182.95912125 429.30892181 184.27793793 429.29296875 185.63671875 C429.28737243 187.00006138 429.2831025 188.36341004 429.28010559 189.72676086 C429.26865949 193.31243592 429.23919486 196.89774554 429.20599365 200.48327637 C429.17528739 204.1430975 429.1615991 207.80297777 429.14648438 211.46289062 C429.11432449 218.64209356 429.06313153 225.82099554 429 233 C427.68 233 426.36 233 425 233 C425 239.6 425 246.2 425 253 C423.68 253 422.36 253 421 253 C421 258.28 421 263.56 421 269 C419.68 269 418.36 269 417 269 C417 274.28 417 279.56 417 285 C415.68 285 414.36 285 413 285 C413 287.64 413 290.28 413 293 C411.68 293 410.36 293 409 293 C409 295.64 409 298.28 409 301 C407.68 301 406.36 301 405 301 C405 302.32 405 303.64 405 305 C403.68 305 402.36 305 401 305 C401 307.64 401 310.28 401 313 C399.68 313 398.36 313 397 313 C397 314.32 397 315.64 397 317 C395.68 317 394.36 317 393 317 C393 318.32 393 319.64 393 321 C391.68 321 390.36 321 389 321 C389 322.32 389 323.64 389 325 C386.36 325 383.72 325 381 325 C381 326.32 381 327.64 381 329 C379.68 329 378.36 329 377 329 C377 330.32 377 331.64 377 333 C374.36 333 371.72 333 369 333 C369 334.32 369 335.64 369 337 C366.36 337 363.72 337 361 337 C361 338.32 361 339.64 361 341 C358.36 341 355.72 341 353 341 C353 342.32 353 343.64 353 345 C349.04 345 345.08 345 341 345 C341 346.32 341 347.64 341 349 C333.08 349 325.16 349 317 349 C317 350.32 317 351.64 317 353 C309.5069832 353.07593983 302.01406529 353.12855332 294.52075195 353.16479492 C291.97058402 353.17990005 289.42044214 353.20038533 286.87036133 353.22631836 C283.20908181 353.26262504 279.54814515 353.27970915 275.88671875 353.29296875 C274.7428923 353.30845261 273.59906586 353.32393646 272.420578 353.33988953 C270.82926811 353.34022942 270.82926811 353.34022942 269.20581055 353.34057617 C268.27093307 353.34723801 267.3360556 353.35389984 266.37284851 353.36076355 C263.52221653 352.92735867 262.92512915 352.04090896 261 350 C258.11426242 349.69988329 255.3882398 349.53375238 252.5 349.5 C244.4040353 349.40538939 244.4040353 349.40538939 242.50663757 347.50163269 C240.59069385 345.59205352 239.65327694 345.60967314 236.98754883 345.56762695 C235.7866436 345.53793571 235.7866436 345.53793571 234.56147766 345.50764465 C233.70201035 345.50125473 232.84254303 345.49486481 231.95703125 345.48828125 C230.63163582 345.46135445 230.63163582 345.46135445 229.27946472 345.43388367 C226.4571917 345.37970004 223.63508856 345.34585939 220.8125 345.3125 C218.89906486 345.27933401 216.98565216 345.24484502 215.07226562 345.20898438 C210.38163285 345.12396901 205.69105116 345.05719638 201 345 C201 346.32 201 347.64 201 349 C191.76 349 182.52 349 173 349 C173 350.32 173 351.64 173 353 C159.88308162 353.06942445 146.76620675 353.12277285 133.64914227 353.15543652 C127.55875357 353.1711112 121.46849032 353.19238249 115.37817383 353.22631836 C109.50377477 353.25884731 103.62949657 353.27683942 97.75501442 353.28463173 C95.51064971 353.29018686 93.26629182 353.30103426 91.02197838 353.31719017 C87.88519218 353.3388783 84.74890931 353.34197051 81.61206055 353.34057617 C80.2116024 353.35675491 80.2116024 353.35675491 78.78285217 353.3732605 C77.92889862 353.36913651 77.07494507 353.36501251 76.19511414 353.36076355 C75.08204911 353.36491162 75.08204911 353.36491162 73.94649792 353.36914349 C71.4681594 352.89913912 70.68995473 351.81001645 69 350 C66.27714948 349.52599696 66.27714948 349.52599696 63.15161133 349.56762695 C61.9505928 349.54783279 60.74957428 349.52803864 59.51216125 349.50764465 C58.21521835 349.50125473 56.91827545 349.49486481 55.58203125 349.48828125 C54.24108734 349.47143541 52.90015924 349.45328529 51.55924988 349.43388367 C48.03297869 349.38636642 44.50677156 349.35656867 40.98028564 349.33044434 C37.3806086 349.3006472 33.78115232 349.25411406 30.18164062 349.20898438 C23.12122007 349.12293207 16.06073136 349.05559556 9 349 C8.67 350.32 8.34 351.64 8 353 C7.65775391 352.51337891 7.31550781 352.02675781 6.96289062 351.52539062 C4.05613681 349.2665103 1.12566999 349.57843909 -2.40625 349.59375 C-3.12735962 349.58291382 -3.84846924 349.57207764 -4.59143066 349.56091309 C-6.89437865 349.52664859 -9.19683058 349.51105675 -11.5 349.5 C-14.5317283 349.48544568 -17.56234664 349.45180318 -20.59375 349.40625 C-21.2906897 349.40927124 -21.98762939 349.41229248 -22.70568848 349.41540527 C-27.58613959 349.33957778 -27.58613959 349.33957778 -29.828125 347.5 C-30.40820312 346.7575 -30.40820312 346.7575 -31 346 C-33.1750228 345.5359848 -33.1750228 345.5359848 -35.5 345.5 C-37.84375 345.40625 -37.84375 345.40625 -40 345 C-40.40710205 344.50717529 -40.8142041 344.01435059 -41.23364258 343.5065918 C-43.85321364 341.27226242 -46.01860714 341.56518988 -49.41796875 341.48828125 C-50.67158203 341.45283203 -51.92519531 341.41738281 -53.21679688 341.38085938 C-54.52712891 341.35830078 -55.83746094 341.33574219 -57.1875 341.3125 C-58.52282013 341.27932334 -59.85810832 341.24483334 -61.19335938 341.20898438 C-64.46215504 341.12637943 -67.73067812 341.05726771 -71 341 C-71 342.32 -71 343.64 -71 345 C-74.96 345 -78.92 345 -83 345 C-83 346.32 -83 347.64 -83 349 C-94.88 349 -106.76 349 -119 349 C-119 350.32 -119 351.64 -119 353 C-120.43655854 353.08131463 -121.8744483 353.13933559 -123.3125 353.1875 C-124.11300781 353.22230469 -124.91351563 353.25710938 -125.73828125 353.29296875 C-128 353 -128 353 -129.29878235 351.50871277 C-131.68500649 349.39250687 -133.32245121 349.60311853 -136.48120117 349.56762695 C-138.16260445 349.53793571 -138.16260445 349.53793571 -139.87797546 349.50764465 C-141.08742325 349.50125473 -142.29687103 349.49486481 -143.54296875 349.48828125 C-144.78170242 349.47033005 -146.0204361 349.45237885 -147.29670715 349.43388367 C-150.5862946 349.38884923 -153.87568459 349.3565735 -157.16546631 349.33044434 C-160.52386017 349.30064061 -163.88201762 349.25410977 -167.24023438 349.20898438 C-173.82671397 349.1238868 -180.41320899 349.05560387 -187 349 C-187 350.32 -187 351.64 -187 353 C-189.77141717 353.08089542 -192.54047819 353.14044062 -195.3125 353.1875 C-196.49102539 353.22520508 -196.49102539 353.22520508 -197.69335938 353.26367188 C-198.45068359 353.27333984 -199.20800781 353.28300781 -199.98828125 353.29296875 C-200.68477783 353.3086792 -201.38127441 353.32438965 -202.09887695 353.34057617 C-204 353 -204 353 -205.3425293 351.50708008 C-207.88965033 349.19107211 -210.1512255 349.61405599 -213.53125 349.59375 C-214.81644531 349.57183594 -216.10164062 349.54992187 -217.42578125 349.52734375 C-218.7838418 349.51654211 -220.14191691 349.50744599 -221.5 349.5 C-224.15720023 349.48543132 -226.81162192 349.4515571 -229.46875 349.40625 C-231.23895508 349.39561523 -231.23895508 349.39561523 -233.04492188 349.38476562 C-236.3213661 348.95815656 -236.95956512 348.45038527 -239 346 C-240.99172182 345.30899447 -242.99161804 344.64097297 -245 344 C-245.66 343.34 -246.32 342.68 -247 342 C-248.97392259 341.8017915 -248.97392259 341.8017915 -251.1875 341.8125 C-256.23646995 341.3917525 -258.12460841 339.34346948 -261.3671875 335.6484375 C-263.61031528 333.38384439 -265.95894351 332.77794468 -269 332 C-269.66 331.34 -270.32 330.68 -271 330 C-273.65537372 329.43479997 -276.29144713 329.26211802 -279 329 C-279 330.32 -279 331.64 -279 333 C-281.64 333 -284.28 333 -287 333 C-287 334.32 -287 335.64 -287 337 C-288.32 337 -289.64 337 -291 337 C-291 338.32 -291 339.64 -291 341 C-294.96 341 -298.92 341 -303 341 C-303 342.32 -303 343.64 -303 345 C-305.64 345 -308.28 345 -311 345 C-311 346.32 -311 347.64 -311 349 C-322.88 349 -334.76 349 -347 349 C-347 350.32 -347 351.64 -347 353 C-349.3125 353.1875 -349.3125 353.1875 -352 353 C-352.56944336 352.26426758 -352.56944336 352.26426758 -353.15039062 351.51367188 C-356.13540816 349.07081169 -359.58931597 349.57953057 -363.28125 349.59375 C-364.0911438 349.58291382 -364.9010376 349.57207764 -365.73547363 349.56091309 C-368.32373052 349.52662576 -370.91154573 349.5110515 -373.5 349.5 C-376.90667649 349.48545507 -380.31236312 349.45182663 -383.71875 349.40625 C-384.50318481 349.40927124 -385.28761963 349.41229248 -386.0958252 349.41540527 C-391.57492616 349.33960445 -391.57492616 349.33960445 -393.82617188 347.54101562 C-394.21353516 347.03248047 -394.60089844 346.52394531 -395 346 C-396.99172182 345.30899447 -398.99161804 344.64097297 -401 344 C-401.66 343.34 -402.32 342.68 -403 342 C-403.91265625 341.73703125 -404.8253125 341.4740625 -405.765625 341.203125 C-409.6029914 339.77569885 -411.96084297 337.63187139 -414.75 334.75 C-415.23082031 334.28464844 -415.71164062 333.81929687 -416.20703125 333.33984375 C-419.40067955 330.11061163 -420.7556745 327.31854144 -422 323 C-422.66 322.34 -423.32 321.68 -424 321 C-424.34070409 318.72720185 -424.44141829 316.48577736 -424.55859375 314.19140625 C-424.78475185 311.91833016 -424.78475185 311.91833016 -426.50630188 310.68840027 C-428.56889971 308.35694475 -428.362538 306.87616571 -428.34057617 303.79418945 C-428.34034958 302.73331619 -428.34012299 301.67244293 -428.33988953 300.579422 C-428.32440567 299.43559555 -428.30892181 298.2917691 -428.29296875 297.11328125 C-428.28872391 295.94113571 -428.28447906 294.76899017 -428.28010559 293.56132507 C-428.26329072 289.81148466 -428.22563232 286.06217843 -428.1875 282.3125 C-428.17245684 279.77279421 -428.1587678 277.23308001 -428.14648438 274.69335938 C-428.11337796 268.46205681 -428.06315028 262.23106656 -428 256 C-426.68 256 -425.36 256 -424 256 C-424 250.72 -424 245.44 -424 240 C-422.68 240 -421.36 240 -420 240 C-420 236.04 -420 232.08 -420 228 C-418.68 228 -417.36 228 -416 228 C-416 225.36 -416 222.72 -416 220 C-414.68 220 -413.36 220 -412 220 C-412 216.04 -412 212.08 -412 208 C-410.68 208 -409.36 208 -408 208 C-408 204.04 -408 200.08 -408 196 C-406.68 196 -405.36 196 -404 196 C-404 192.04 -404 188.08 -404 184 C-402.68 184 -401.36 184 -400 184 C-400 181.36 -400 178.72 -400 176 C-398.68 176 -397.36 176 -396 176 C-396 172.04 -396 168.08 -396 164 C-394.68 164 -393.36 164 -392 164 C-392 160.04 -392 156.08 -392 152 C-390.68 152 -389.36 152 -388 152 C-388 148.04 -388 144.08 -388 140 C-386.68 140 -385.36 140 -384 140 C-384 137.36 -384 134.72 -384 132 C-382.68 132 -381.36 132 -380 132 C-380 128.04 -380 124.08 -380 120 C-378.68 120 -377.36 120 -376 120 C-376 116.04 -376 112.08 -376 108 C-374.68 108 -373.36 108 -372 108 C-372 104.04 -372 100.08 -372 96 C-370.68 96 -369.36 96 -368 96 C-368 93.36 -368 90.72 -368 88 C-366.68 88 -365.36 88 -364 88 C-364 84.04 -364 80.08 -364 76 C-362.68 76 -361.36 76 -360 76 C-360 73.36 -360 70.72 -360 68 C-358.68 68 -357.36 68 -356 68 C-356 65.36 -356 62.72 -356 60 C-354.68 60 -353.36 60 -352 60 C-352 57.36 -352 54.72 -352 52 C-350.68 52 -349.36 52 -348 52 C-348 50.68 -348 49.36 -348 48 C-346.68 48 -345.36 48 -344 48 C-344 46.68 -344 45.36 -344 44 C-342.68 44 -341.36 44 -340 44 C-340 42.68 -340 41.36 -340 40 C-336.04 40 -332.08 40 -328 40 C-328 38.68 -328 37.36 -328 36 C-325.36 36 -322.72 36 -320 36 C-320 34.68 -320 33.36 -320 32 C-313.4 32 -306.8 32 -300 32 C-300 30.68 -300 29.36 -300 28 C-292.5069832 27.92406017 -285.01406529 27.87144668 -277.52075195 27.83520508 C-274.97058402 27.82009995 -272.42044214 27.79961467 -269.87036133 27.77368164 C-266.20908181 27.73737496 -262.54814515 27.72029085 -258.88671875 27.70703125 C-257.7428923 27.69154739 -256.59906586 27.67606354 -255.420578 27.66011047 C-254.35970474 27.65988388 -253.29883148 27.65965729 -252.20581055 27.65942383 C-251.27093307 27.65276199 -250.3360556 27.64610016 -249.37284851 27.63923645 C-246.52221653 28.07264133 -245.92512915 28.95909104 -244 31 C-241.11426242 31.30011671 -238.3882398 31.46624762 -235.5 31.5 C-227.43178362 31.59428633 -227.43178362 31.59428633 -225.44726562 33.45898438 C-224.73086914 34.22178711 -224.73086914 34.22178711 -224 35 C-222.00827818 35.69100553 -220.00838196 36.35902703 -218 37 C-217.34 37.66 -216.68 38.32 -216 39 C-214.72125 38.95875 -213.4425 38.9175 -212.125 38.875 C-206.8569414 39.3118634 -204.13418309 42.09853632 -200.5625 45.6875 C-200.04252441 46.20489746 -199.52254883 46.72229492 -198.98681641 47.25537109 C-195.78890001 50.63861291 -194.2937624 53.45557832 -193 58 C-192.34 58.66 -191.68 59.32 -191 60 C-190.7525 60.9075 -190.505 61.815 -190.25 62.75 C-188.84122853 66.41280582 -187.20795992 67.88609049 -184.39453125 70.48046875 C-182.35600268 72.70172257 -181.73596503 75.1230458 -181 78 C-178.94077598 80.05922402 -174.78291876 79.41427579 -171.9375 79.5625 C-170.79958008 79.62727539 -170.79958008 79.62727539 -169.63867188 79.69335938 C-167.75934562 79.79973633 -165.87969756 79.90039934 -164 80 C-164 78.68 -164 77.36 -164 76 C-158.72 76 -153.44 76 -148 76 C-148 74.68 -148 73.36 -148 72 C-124.24 72 -100.48 72 -76 72 C-76 68.04 -76 64.08 -76 60 C-74.68 60 -73.36 60 -72 60 C-72 54.72 -72 49.44 -72 44 C-70.68 44 -69.36 44 -68 44 C-68 41.36 -68 38.72 -68 36 C-66.68 36 -65.36 36 -64 36 C-64 33.36 -64 30.72 -64 28 C-62.68 28 -61.36 28 -60 28 C-60 26.68 -60 25.36 -60 24 C-58.68 24 -57.36 24 -56 24 C-56 22.68 -56 21.36 -56 20 C-54.68 20 -53.36 20 -52 20 C-52 18.68 -52 17.36 -52 16 C-49.36 16 -46.72 16 -44 16 C-44 14.68 -44 13.36 -44 12 C-41.36 12 -38.72 12 -36 12 C-36 10.68 -36 9.36 -36 8 C-33.36 8 -30.72 8 -28 8 C-28 6.68 -28 5.36 -28 4 C-18.76 4 -9.52 4 0 4 C0 2.68 0 1.36 0 0 Z " fill="#1FCADF" transform="translate(624,196)"/>
</svg>
